<svg aria-hidden="true" version="1.1" xmlns="http://www.w3.org/2000/svg" xmlns:xlink="http://www.w3.org/1999/xlink">
  <defs>
    <g id="arrow-down" viewBox="0 0 32 32">
      <path d="M2,10l14,18l14,-18l-5,0l-9,10l-5,-12z"></path>
    </g>
    <g id="cross" viewBox="0 0 32 32">
      <path d="M31.935 22.24c-1.067-2.034-3.21-3.59-4.919-5.074-1.827-1.586-3.727-3.087-5.623-4.592 2.167-2.773 4.373-5.525 6.532-8.315 0.413-0.019 0.716-0.47 0.644-0.885 0.204-0.521-0.459-1.079-0.957-0.868-0.959-0.568-2.013-1.057-3.001-1.518-0.399-0.186-0.857 0.213-0.719 0.576-2.372 2.424-4.829 4.768-7.31 7.088-1.036-0.88-2.058-1.777-3.054-2.702-0.005-0.004-0.009-0.009-0.014-0.014-0.002-0.167-0.075-0.336-0.245-0.477-0.049-0.041-0.103-0.075-0.153-0.115l0.002-0.002c-0.006-0.003-0.013-0.007-0.019-0.011-0.19-0.148-0.381-0.293-0.576-0.432-0.939-1.067-1.841-2.264-2.904-3.124-0.018-0.52-0.562-1.030-1.141-0.678-1.952 1.184-4.337 2.407-5.842 4.162-0.048 0.055-0.084 0.112-0.113 0.171-0.401 0-0.723 0.593-0.382 0.941 2.709 2.761 5.824 5.094 8.867 7.47-3.384 3.15-6.727 6.339-9.896 9.689-0.013 0.012-0.028 0.016-0.041 0.030-0.29 0.297-0.575 0.6-0.855 0.907-0.481 0.519-0.081 1.207 0.444 1.306 0.963 1.573 2.438 2.743 3.945 3.773 1.022 0.698 2.886 1.976 4.172 1.342 0.24 0.043 0.493-0.027 0.619-0.279 2.113-4.217 4.646-8.133 7.374-11.915 1.532 1.346 3.053 2.705 4.587 4.042 0.451 0.392 5.439 5.669 6.296 3.914 0.118 0.032 0.241 0.047 0.362 0.025 0.78-0.142 1.397-1.124 1.824-1.706 0.441-0.601 0.895-1.237 1.281-1.89 0.524 0.354 1.072-0.347 0.815-0.837zM3.614 23.34c-0.039 0.105-0.047 0.215-0.040 0.323-0.191 0.106-0.322 0.288-0.373 0.494-0.198 0.017-0.389 0.083-0.553 0.206-0.023-0.010-0.046-0.020-0.070-0.029 0.343-0.332 0.688-0.664 1.035-0.994zM8.521 29.55c-0.14-0.066-0.285-0.113-0.431-0.16 0.24-0.083 0.46-0.203 0.661-0.355-0.075 0.172-0.156 0.342-0.23 0.515zM12.121 12.802c-1.707-1.38-3.438-2.733-5.173-4.078 0.548 0.377 1.113 0.728 1.693 1.055 1.144 1.025 2.326 2.012 3.518 2.988-0.013 0.012-0.026 0.024-0.038 0.036z"></path>
    </g>
    <g id="exclamation" viewBox="0 0 32 32">
      <path d="M16,0 a16 16 0 1 1 0 32 l0,-2.7 a10.5 10.5 0 1 0 0 -26.6 a10.5 10.5 0 1 0 0 26.6 l0,2.7 a16 16 0 1 1 0 -32z"></path>
      <path d="M15.3,21.4 a3 3 0 1 1 0 6 a3 3 0 1 1 0 -6z"></path>
      <path d="M12.8,5.1 l6,0 l-1.9,13.8 l-3.2,0z"></path>
    </g>
    <g id="questionmark" viewBox="0 0 32 32">
      <path d="M26.357 9.1v-0.085c0-5.58-4.422-9.015-10.732-9.015-3.64 0-6.533 1.026-8.851 2.615-1.347 0.923-1.469 2.948-0.482 4.25l0.72 0.95c0.987 1.302 2.755 1.426 4.185 0.636 1.304-0.72 2.627-1.11 3.869-1.11 2.060 0 3.219 0.901 3.219 2.361v0.043c0 1.846-1.76 4.484-6.74 4.913l-0.171 0.193c-0.095 0.107 0.025 1.503 0.266 3.119l0.198 1.318c0.241 1.616 1.6 2.925 3.034 2.925s2.713-0.615 2.854-1.373c0.143-0.759 0.258-1.374 0.258-1.374 4.764-1.16 8.371-4.957 8.371-10.366z"></path>
      <path d="M13.474 24.702c-1.634 0-2.958 1.324-2.958 2.958v1.381c0 1.634 1.324 2.958 2.958 2.958h2.54c1.634 0 2.958-1.324 2.958-2.958v-1.381c0-1.634-1.325-2.958-2.958-2.958h-2.54z"></path>
    </g>
    <g id="lightbulb" viewBox="0 0 32 32">
      <path d="M25.351 7.224c-1.316-4.104-6.233-5.005-9.922-4.373-4.237 0.726-8.327 4.456-7.247 9.113 0.496 2.138 1.802 3.080 3.303 4.547 1.069 1.045 1.342 2.224 1.468 3.644 0.038 0.428 0.051 0.877 0.245 1.254-1.083 0.159-2.631 0.731-1.545 1.882 0.214 0.227 0.487 0.409 0.784 0.569-0.821 0.577-1.102 1.592-0.411 2.473 0.196 0.251 0.433 0.464 0.689 0.655-0.601 0.135-1.090 0.29-1.451 0.986-0.297 0.573-0.168 1.223 0.231 1.708 1.048 1.276 3.094 1.61 4.626 1.803 1.68 0.211 3.855 0.213 5.278-0.85 1.477-1.102 0.948-2.919 0.004-4.19 0.284-0.609 0.368-1.318 0.187-1.961 0.014-0.007 0.029-0.012 0.043-0.019 1.301-0.717 0.634-2.43-0.405-3.11-0.003-0.128-0.044-0.26-0.12-0.371 0.258-0.103 0.465-0.357 0.398-0.704-0.549-2.871 1.713-4.548 3.166-6.687 1.287-1.894 1.36-4.244 0.679-6.368zM9.32 11.711c0.192 0.579 0.439 1.105 0.742 1.591 0 0.093 0.021 0.189 0.093 0.284 0.135 0.178 0.27 0.356 0.405 0.534-0.678-0.683-1.076-1.518-1.24-2.409zM24.194 7.636c-0.035-0.061-0.072-0.12-0.109-0.179-0.019-0.105-0.064-0.211-0.148-0.312s-0.175-0.192-0.261-0.289c-0.016-0.023-0.034-0.048-0.049-0.070-0.348-0.498-0.745-0.978-1.188-1.406 0.768 0.614 1.377 1.379 1.755 2.256zM20.125 4.147c-0.068 0.033-0.127 0.082-0.181 0.137-0.035-0.014-0.069-0.032-0.103-0.042-0.001-0-0.001-0.001-0.002-0.002-0.114-0.041-0.23-0.084-0.351-0.049-0.004 0.001-0.007 0.005-0.011 0.006-0.283-0.152-0.569-0.284-0.859-0.379 0.519 0.060 1.024 0.173 1.507 0.328zM17.913 20.84c0.011-0.048 0.014-0.097 0.022-0.146 0.084-0.045 0.15-0.127 0.154-0.254 0.102-3.086-0.815-9.702 2.523-11.473 0.073 0.012 0.146 0.023 0.219 0.035 0 0.003 0.001 0.006 0.001 0.009-0.193 0.822-0.187 1.63-0.011 2.436-0.429 3.141-2.187 6.288-2.142 9.457-0.269 0.014-0.538 0.025-0.807 0.036 0.015-0.031 0.031-0.062 0.040-0.099zM15.139 10.729c0.039 0.005 0.078 0.014 0.115 0.012 0.007 0.135 0.009 0.272 0.018 0.407-0.014 0.267-0.023 0.535-0.028 0.804-0.099-0.149-0.204-0.291-0.312-0.43 0.243-0.162 0.363-0.506 0.207-0.793zM12.115 10.663c0.397 0.495 0.795 0.989 1.173 1.499 0.203 0.275 0.604 0.296 0.862 0.147 0.601 0.827 1.039 1.821 1.384 2.768-0.020 0.169-0.043 0.337-0.061 0.507-0.028 0.263 0.123 0.44 0.325 0.524 0.026 0.067 0.064 0.121 0.108 0.168 0.347 1.518 0.416 3.533 1.219 4.665 0.006 0.008 0.014 0.013 0.020 0.021-0.541 0.012-1.117-0.013-1.672 0.029 0.045-0.042 0.084-0.094 0.109-0.166 1.395-4.037-2.003-6.778-3.467-10.164zM14.888 20.306c-0.006-0.099-0.011-0.198-0.016-0.297-0.002-0.555-0.003-1.11-0.005-1.665 0.115 0.618 0.126 1.27 0.021 1.962zM20.473 29.881c-1.126 0.667-2.701 0.601-3.954 0.501-1.287-0.103-2.694-0.399-3.796-1.102-0.893-0.569-0.185-1.432 0.411-2.015 0.85 0.497 1.874 0.765 2.788 0.918 1.486 0.248 3.189 0.216 4.504-0.602 0.089-0.055 0.169-0.123 0.25-0.189 0.508 0.88 0.879 1.849-0.204 2.49zM13.061 24.142c1.080 0.402 2.378 0.544 3.314 0.668 1.242 0.165 2.77 0.357 4.095 0.071 0.044 0.792 0.011 1.42-0.915 1.922-0.967 0.524-2.287 0.464-3.338 0.316-1.646-0.232-4.325-1.025-3.155-2.977zM20.722 23.627c-1.237 0.416-2.728 0.244-3.996 0.102-1.293-0.145-2.698-0.388-3.881-0.953-0.142-0.068-0.285-0.146-0.405-0.249 0.312-0.331 0.858-0.505 1.287-0.68 0.375 0.002 0.7-0.512 0.389-0.902-0.027-0.034-0.049-0.072-0.071-0.111 0.070 0.050 0.151 0.079 0.237 0.091 0.015 0.077 0.027 0.155 0.043 0.231 0.020 0.094 0.065 0.156 0.124 0.192-0.129 0.26-0.036 0.629 0.296 0.712 0.9 0.224 1.983 0.073 2.901 0.058 0.884-0.014 1.781-0.056 2.661-0.176 0.387 0.607 1.525 1.311 0.416 1.684z"></path>
      <path d="M29.134 0.408c-0.619 0.060-1.014 0.633-1.409 1.059-0.528 0.569-1.136 1.194-1.485 1.892-0.234 0.468 0.327 0.911 0.72 0.555 0.524-0.473 0.972-1.038 1.481-1.529 0.347-0.335 0.812-0.557 1.139-0.901 0.348-0.365 0.132-1.133-0.446-1.077z"></path>
      <path d="M31.98 7.104c-0.192-0.644-0.853-0.526-1.368-0.454-0.62 0.087-1.242 0.225-1.823 0.461-0.577 0.235-0.373 1.105 0.263 0.954 0.485-0.116 0.979-0.214 1.475-0.267 0.181-0.019 0.377-0.043 0.558-0.016 0.098 0.015 0.194 0.031 0.293 0.028 0.002-0 0.142-0.029 0.232-0.047 0.279-0.064 0.45-0.393 0.37-0.659z"></path>
      <path d="M31.61 7.764c-0.002 0-0.004 0.003-0.006 0.003 0.125-0.027 0.084-0.019 0.006-0.003z"></path>
      <path d="M30.586 17.176c0.116 0.083-0.034-0.051-0.041-0.058-0.121-0.116-0.244-0.179-0.402-0.231-0.268-0.087-0.516-0.234-0.76-0.372-0.568-0.322-1.125-0.662-1.683-1-0.463-0.281-0.834 0.404-0.415 0.71 0.568 0.414 1.137 0.827 1.719 1.222 0.42 0.285 0.912 0.816 1.47 0.592 0.39-0.156 0.463-0.613 0.113-0.863z"></path>
      <path d="M8.165 4.227c-0.606-0.901-1.593-1.684-2.466-2.314-0.339-0.244-0.706-0.458-1.137-0.35-0.517 0.129-0.603 0.744-0.325 1.125 0.161 0.221 0.486 0.288 0.694 0.148 0.316 0.158 0.606 0.381 0.889 0.589 0.599 0.441 1.129 0.99 1.748 1.399 0.36 0.238 0.839-0.236 0.597-0.597z"></path>
      <path d="M5.571 8.199c-0.885-0.183-1.72-0.346-2.627-0.441-0.491-0.051-0.981-0.108-1.468-0.186-0.046-0.007-0.093-0.017-0.142-0.028-0.083-0.112-0.212-0.192-0.401-0.192-0.482-0.001-1.067 0.204-0.908 0.817 0.138 0.53 0.846 0.593 1.283 0.638 1.441 0.148 2.845 0.162 4.262-0.115 0.247-0.048 0.244-0.443 0-0.493z"></path>
      <path d="M5.945 14.257c-0.756 0.263-1.487 0.593-2.245 0.851-0.58 0.198-1.403 0.216-1.891 0.589-0.316 0.242-0.364 0.683 0 0.916 0.611 0.392 1.402-0.011 2.006-0.244 0.857-0.332 1.738-0.712 2.507-1.219 0.443-0.292 0.171-1.084-0.377-0.893z"></path>
    </g>
  </defs>

  <view id="arrow-down-mask" viewBox="0 0 32 32" />
  <view id="cross-mask" viewBox="0 32 32 32" />
  <view id="lightbulb-mask" viewBox="0 64 32 32" />
  <view id="exclamation-mask" viewBox="0 96 32 32" />
  <view id="questionmark-mask" viewBox="0 128 32 32" />

	<use xlink:href="#arrow-down" width="32" height="32" x="0" y="0"></use>
	<use xlink:href="#cross" width="32" height="32" x="0" y="32"></use>
	<use xlink:href="#lightbulb" width="32" height="32" x="0" y="64"></use>
	<use xlink:href="#exclamation" width="32" height="32" x="0" y="96"></use>
	<use xlink:href="#questionmark" width="32" height="32" x="0" y="128"></use>
</svg>
